<mxfile host="drawio-plugin" modified="2021-12-03T23:11:29.342Z" agent="5.0 (Windows NT 6.2; Win64; x64) AppleWebKit/537.36 (KHTML, like Gecko) Chrome/89.0.4389.114 Safari/537.36" etag="i7b3KwV56sf8_Q6s067-" version="14.7.4" type="embed"><diagram id="23iRSUPoRavnBvh4doch" name="Page-1"><mxGraphModel dx="1662" dy="722" grid="1" gridSize="10" guides="1" tooltips="1" connect="1" arrows="1" fold="1" page="1" pageScale="1" pageWidth="827" pageHeight="1169" math="0" shadow="0"><root><mxCell id="0"/><mxCell id="1" parent="0"/><mxCell id="2" value="CRON SCRIPT !&lt;br&gt;exucution: 1. day of a month" style="text;html=1;strokeColor=#6F0000;fillColor=#a20025;align=center;verticalAlign=middle;whiteSpace=wrap;rounded=0;fontColor=#ffffff;" vertex="1" parent="1"><mxGeometry x="10" width="210" height="40" as="geometry"/></mxCell><mxCell id="3" value="" style="edgeStyle=orthogonalEdgeStyle;rounded=0;orthogonalLoop=1;jettySize=auto;html=1;" edge="1" parent="1" source="4" target="6"><mxGeometry relative="1" as="geometry"/></mxCell><mxCell id="4" value="Actions on first day of a month" style="rounded=1;whiteSpace=wrap;html=1;fontSize=12;glass=0;strokeWidth=1;shadow=0;" vertex="1" parent="1"><mxGeometry x="270" y="60" width="195" height="40" as="geometry"/></mxCell><mxCell id="23" style="edgeStyle=orthogonalEdgeStyle;rounded=0;orthogonalLoop=1;jettySize=auto;html=1;exitX=0.5;exitY=1;exitDx=0;exitDy=0;entryX=0.5;entryY=0;entryDx=0;entryDy=0;" edge="1" parent="1" source="6" target="13"><mxGeometry relative="1" as="geometry"/></mxCell><mxCell id="6" value="Calculate all paid Orders of single seller to get total amount&lt;br&gt;&lt;br&gt;select * blmkt_order_details where refund_amount &amp;lt; page_price_seller AND seller_id=xx AND seller_paid=0 AND order_id in (select order_id from blmkt_orders where order_status=20 (paid) and created_at in last_month)" style="whiteSpace=wrap;html=1;rounded=1;shadow=0;strokeWidth=1;glass=0;" vertex="1" parent="1"><mxGeometry x="138.75" y="120" width="457.5" height="90" as="geometry"/></mxCell><mxCell id="29" style="edgeStyle=orthogonalEdgeStyle;rounded=0;orthogonalLoop=1;jettySize=auto;html=1;exitX=0.5;exitY=1;exitDx=0;exitDy=0;entryX=0.5;entryY=0;entryDx=0;entryDy=0;" edge="1" parent="1" source="8" target="10"><mxGeometry relative="1" as="geometry"/></mxCell><mxCell id="8" value="Add total amount to users.balance_seller" style="whiteSpace=wrap;html=1;rounded=1;shadow=0;strokeWidth=1;glass=0;" vertex="1" parent="1"><mxGeometry x="234.69" y="380" width="265.62" height="40" as="geometry"/></mxCell><mxCell id="10" value="insert data into blmkt_user_balance" style="whiteSpace=wrap;html=1;rounded=1;shadow=0;strokeWidth=1;glass=0;" vertex="1" parent="1"><mxGeometry x="234.69" y="450" width="270" height="40" as="geometry"/></mxCell><mxCell id="11" value="&lt;font size=&quot;1&quot;&gt;&lt;b style=&quot;font-size: 20px&quot;&gt;SELLER&lt;/b&gt;&lt;/font&gt;" style="text;html=1;strokeColor=none;fillColor=none;align=center;verticalAlign=middle;whiteSpace=wrap;rounded=0;" vertex="1" parent="1"><mxGeometry x="275" width="180" height="50" as="geometry"/></mxCell><mxCell id="27" style="edgeStyle=orthogonalEdgeStyle;rounded=0;orthogonalLoop=1;jettySize=auto;html=1;exitX=0.5;exitY=1;exitDx=0;exitDy=0;entryX=0.5;entryY=0;entryDx=0;entryDy=0;" edge="1" parent="1" source="13" target="25"><mxGeometry relative="1" as="geometry"/></mxCell><mxCell id="13" value="total_amount+=page_price_seller - refund_amount" style="whiteSpace=wrap;html=1;rounded=1;shadow=0;strokeWidth=1;glass=0;" vertex="1" parent="1"><mxGeometry x="220.1" y="240" width="294.81" height="40" as="geometry"/></mxCell><mxCell id="14" style="edgeStyle=orthogonalEdgeStyle;rounded=0;orthogonalLoop=1;jettySize=auto;html=1;exitX=0.5;exitY=1;exitDx=0;exitDy=0;entryX=0;entryY=0.5;entryDx=0;entryDy=0;" edge="1" parent="1" source="10" target="6"><mxGeometry relative="1" as="geometry"><Array as="points"><mxPoint x="370" y="620"/><mxPoint x="80" y="620"/><mxPoint x="80" y="165"/></Array><mxPoint x="369.69000000000005" y="665" as="sourcePoint"/></mxGeometry></mxCell><mxCell id="16" value="Repeat until &lt;br&gt;no seller left" style="text;html=1;strokeColor=none;fillColor=none;align=center;verticalAlign=middle;whiteSpace=wrap;rounded=0;" vertex="1" parent="1"><mxGeometry x="354" y="530" width="120" height="30" as="geometry"/></mxCell><mxCell id="17" value="" style="endArrow=classic;html=1;" edge="1" parent="1"><mxGeometry width="50" height="50" relative="1" as="geometry"><mxPoint x="80" y="350" as="sourcePoint"/><mxPoint x="80" y="260" as="targetPoint"/></mxGeometry></mxCell><mxCell id="18" value="" style="endArrow=classic;html=1;" edge="1" parent="1"><mxGeometry width="50" height="50" relative="1" as="geometry"><mxPoint x="80" y="350" as="sourcePoint"/><mxPoint x="80" y="260" as="targetPoint"/><Array as="points"><mxPoint x="80" y="350"/></Array></mxGeometry></mxCell><mxCell id="19" value="" style="endArrow=classic;html=1;" edge="1" parent="1"><mxGeometry width="50" height="50" relative="1" as="geometry"><mxPoint x="80" y="503" as="sourcePoint"/><mxPoint x="80" y="413" as="targetPoint"/><Array as="points"><mxPoint x="80" y="503"/></Array></mxGeometry></mxCell><mxCell id="20" value="" style="endArrow=classic;html=1;" edge="1" parent="1"><mxGeometry width="50" height="50" relative="1" as="geometry"><mxPoint x="225" y="620" as="sourcePoint"/><mxPoint x="140" y="620" as="targetPoint"/></mxGeometry></mxCell><mxCell id="28" style="edgeStyle=orthogonalEdgeStyle;rounded=0;orthogonalLoop=1;jettySize=auto;html=1;exitX=0.5;exitY=1;exitDx=0;exitDy=0;entryX=0.5;entryY=0;entryDx=0;entryDy=0;" edge="1" parent="1" source="25" target="8"><mxGeometry relative="1" as="geometry"/></mxCell><mxCell id="25" value="update blmkt_order_details.seller_paid=1" style="whiteSpace=wrap;html=1;rounded=1;shadow=0;strokeWidth=1;glass=0;" vertex="1" parent="1"><mxGeometry x="232.5" y="310" width="270" height="40" as="geometry"/></mxCell></root></mxGraphModel></diagram></mxfile>